<?xml version="1.0" encoding="UTF-8" standalone="no"?>
<!-- Created with Inkscape (http://www.inkscape.org/) -->

<svg
   width="65.678284mm"
   height="68.128716mm"
   viewBox="0 0 65.678283 68.128715"
   version="1.1"
   id="svg1"
   xml:space="preserve"
   inkscape:version="1.3.2 (091e20e, 2023-11-25, custom)"
   sodipodi:docname="01n.svg"
   xmlns:inkscape="http://www.inkscape.org/namespaces/inkscape"
   xmlns:sodipodi="http://sodipodi.sourceforge.net/DTD/sodipodi-0.dtd"
   xmlns="http://www.w3.org/2000/svg"
   xmlns:svg="http://www.w3.org/2000/svg"><sodipodi:namedview
     id="namedview1"
     pagecolor="#ffffff"
     bordercolor="#666666"
     borderopacity="1.0"
     inkscape:showpageshadow="2"
     inkscape:pageopacity="0.0"
     inkscape:pagecheckerboard="0"
     inkscape:deskcolor="#d1d1d1"
     inkscape:document-units="mm"
     inkscape:zoom="0.74564394"
     inkscape:cx="168.98146"
     inkscape:cy="276.94183"
     inkscape:window-width="958"
     inkscape:window-height="1033"
     inkscape:window-x="0"
     inkscape:window-y="0"
     inkscape:window-maximized="0"
     inkscape:current-layer="layer1" /><defs
     id="defs1" /><g
     inkscape:label="Layer 1"
     inkscape:groupmode="layer"
     id="layer1"
     transform="translate(-70.257936,-106.4521)"><path
       id="path1"
       style="fill:#f6f1d5;fill-opacity:1;stroke:none;stroke-width:0.499999;stroke-linecap:round;paint-order:stroke fill markers"
       d="m 104.1857,106.45213 a 34.064514,34.064514 0 0 0 -33.927643,34.15502 34.064514,34.064514 0 0 0 34.110063,33.97363 34.064514,34.064514 0 0 0 31.5681,-21.59506 21.290323,22.709679 0 0 1 -17.7462,10.2402 21.290323,22.709679 0 0 1 -21.319117,-22.64926 21.290323,22.709679 0 0 1 21.204907,-22.77019 21.290323,22.709679 0 0 1 17.84232,10.20093 34.064514,34.064514 0 0 0 -31.73243,-21.55527 z" /></g></svg>
