<?xml version="1.0" encoding="UTF-8" standalone="no"?>
<!-- Created with Inkscape (http://www.inkscape.org/) -->

<svg
   width="155.23448mm"
   height="149.03986mm"
   viewBox="0 0 155.23449 149.03985"
   version="1.1"
   id="svg1"
   inkscape:version="1.3.2 (091e20e, 2023-11-25, custom)"
   sodipodi:docname="11n.svg"
   xmlns:inkscape="http://www.inkscape.org/namespaces/inkscape"
   xmlns:sodipodi="http://sodipodi.sourceforge.net/DTD/sodipodi-0.dtd"
   xmlns="http://www.w3.org/2000/svg"
   xmlns:svg="http://www.w3.org/2000/svg">
  <sodipodi:namedview
     id="namedview1"
     pagecolor="#ffffff"
     bordercolor="#666666"
     borderopacity="1.0"
     inkscape:showpageshadow="2"
     inkscape:pageopacity="0.0"
     inkscape:pagecheckerboard="0"
     inkscape:deskcolor="#d1d1d1"
     inkscape:document-units="mm"
     inkscape:zoom="0.52724989"
     inkscape:cx="198.19824"
     inkscape:cy="499.76303"
     inkscape:window-width="958"
     inkscape:window-height="1033"
     inkscape:window-x="952"
     inkscape:window-y="0"
     inkscape:window-maximized="0"
     inkscape:current-layer="layer1" />
  <defs
     id="defs1">
    <inkscape:path-effect
       effect="bspline"
       id="path-effect17"
       is_visible="true"
       lpeversion="1.3"
       weight="33.333333"
       steps="2"
       helper_size="0"
       apply_no_weight="true"
       apply_with_weight="true"
       only_selected="false"
       uniform="false" />
  </defs>
  <g
     inkscape:label="Layer 1"
     inkscape:groupmode="layer"
     id="layer1"
     transform="translate(-35.848999,-55.58733)">
    <path
       style="fill:#eedd82;fill-opacity:1;stroke:none;stroke-width:0.264583px;stroke-linecap:butt;stroke-linejoin:miter;stroke-opacity:1"
       d="m 94.059853,129.85635 c 0,0 -8.029082,25.59271 -8.029082,25.59271 0,0 22.581799,-0.50182 22.581799,-0.50182 0,0 -13.047264,49.67995 -13.047264,49.67995 0,0 32.618154,-61.72358 32.618154,-61.72358 0,0 -22.07998,0 -22.07998,0 0,0 4.51636,-13.54908 4.51636,-13.54908 z"
       id="path17"
       inkscape:path-effect="#path-effect17"
       inkscape:original-d="m 94.059853,129.85635 -8.029082,25.59271 22.581799,-0.50182 -13.047264,49.67995 32.618154,-61.72358 h -22.07998 l 4.51636,-13.54908 z"
       sodipodi:nodetypes="cccccccc" />
    <g
       id="g2"
       transform="matrix(-1.6892809,0,0,1.6892809,269.62366,-126.28216)">
      <path
         style="fill:#b8bec3;fill-opacity:1;stroke:none;stroke-width:0.499999;stroke-linecap:round;paint-order:stroke fill markers"
         id="path8"
         sodipodi:type="arc"
         sodipodi:cx="108.04839"
         sodipodi:cy="131.82259"
         sodipodi:rx="17.032257"
         sodipodi:ry="17.032257"
         sodipodi:start="0"
         sodipodi:end="6.2778341"
         sodipodi:open="true"
         sodipodi:arc-type="arc"
         d="m 125.08065,131.82259 a 17.032257,17.032257 0 0 1 -17.00947,17.03224 17.032257,17.032257 0 0 1 -17.054983,-16.98667 17.032257,17.032257 0 0 1 16.963843,-17.07769 17.032257,17.032257 0 0 1 17.10037,16.94097" />
      <g
         id="g10"
         transform="translate(0.53225806,-17.741935)"
         style="fill:#b8bec3;fill-opacity:1">
        <path
           style="fill:#b8bec3;fill-opacity:1;stroke:none;stroke-width:0.399999;stroke-linecap:round;paint-order:stroke fill markers"
           id="path6"
           sodipodi:type="arc"
           sodipodi:cx="77.532249"
           sodipodi:cy="166.59677"
           sodipodi:rx="7.8064513"
           sodipodi:ry="7.8064513"
           sodipodi:start="0"
           sodipodi:end="6.2778341"
           sodipodi:open="true"
           sodipodi:arc-type="arc"
           d="m 85.338701,166.59677 a 7.8064513,7.8064513 0 0 1 -7.796008,7.80645 7.8064513,7.8064513 0 0 1 -7.816867,-7.78556 7.8064513,7.8064513 0 0 1 7.775093,-7.82728 7.8064513,7.8064513 0 0 1 7.83767,7.76462" />
        <path
           style="fill:#b8bec3;fill-opacity:1;stroke:none;stroke-width:0.451388;stroke-linecap:round;paint-order:stroke fill markers"
           id="path7"
           sodipodi:type="arc"
           sodipodi:cx="91.7258"
           sodipodi:cy="162.87096"
           sodipodi:rx="11.532258"
           sodipodi:ry="11.532258"
           sodipodi:start="0"
           sodipodi:end="6.2778341"
           sodipodi:open="true"
           sodipodi:arc-type="arc"
           d="M 103.25806,162.87096 A 11.532258,11.532258 0 0 1 91.741227,174.4032 11.532258,11.532258 0 0 1 80.193583,162.90181 11.532258,11.532258 0 0 1 91.679516,151.33879 11.532258,11.532258 0 0 1 103.25789,162.80925" />
        <path
           style="fill:#b8bec3;fill-opacity:1;stroke:none;stroke-width:0.326388;stroke-linecap:round;paint-order:stroke fill markers"
           id="path9"
           sodipodi:type="arc"
           sodipodi:cx="107.16128"
           sodipodi:cy="166.41934"
           sodipodi:rx="8.3387098"
           sodipodi:ry="8.3387098"
           sodipodi:start="0"
           sodipodi:end="6.2778341"
           sodipodi:open="true"
           sodipodi:arc-type="arc"
           d="m 115.49999,166.41934 a 8.3387098,8.3387098 0 0 1 -8.32756,8.3387 8.3387098,8.3387098 0 0 1 -8.349832,-8.31639 8.3387098,8.3387098 0 0 1 8.305212,-8.36095 8.3387098,8.3387098 0 0 1 8.37206,8.29402" />
        <path
           style="fill:#b8bec3;fill-opacity:1;stroke:none;stroke-width:0.520786;stroke-linecap:round;paint-order:stroke fill markers"
           id="path10"
           sodipodi:type="arc"
           sodipodi:cx="124.37096"
           sodipodi:cy="161.09677"
           sodipodi:rx="13.483871"
           sodipodi:ry="13.129032"
           sodipodi:start="0"
           sodipodi:end="6.2778341"
           sodipodi:open="true"
           sodipodi:arc-type="arc"
           d="m 137.85483,161.09677 a 13.483871,13.129032 0 0 1 -13.46583,13.12902 13.483871,13.129032 0 0 1 -13.50187,-13.09389 13.483871,13.129032 0 0 1 13.42971,-13.16406 13.483871,13.129032 0 0 1 13.53779,13.05868" />
      </g>
    </g>
    <g
       id="g12"
       transform="matrix(-1.6892809,0,0,1.6892809,269.62366,-126.28216)">
      <g
         id="g17"
         transform="translate(13.367698,9.2088587)">
        <path
           style="fill:#7c8287;fill-opacity:1;stroke:none;stroke-width:0.499999;stroke-linecap:round;paint-order:stroke fill markers"
           id="path12"
           sodipodi:type="arc"
           sodipodi:cx="70.915901"
           sodipodi:cy="115.48429"
           sodipodi:rx="17.032257"
           sodipodi:ry="17.032257"
           sodipodi:start="0"
           sodipodi:end="6.2778341"
           sodipodi:open="true"
           sodipodi:arc-type="arc"
           d="M 87.948158,115.48429 A 17.032257,17.032257 0 0 1 70.938687,132.51653 17.032257,17.032257 0 0 1 53.883705,115.52986 17.032257,17.032257 0 0 1 70.847544,98.452171 17.032257,17.032257 0 0 1 87.947914,115.39315" />
        <g
           id="g16"
           transform="translate(-36.600237,-34.080233)"
           style="fill:#7c8287;fill-opacity:1">
          <path
             style="fill:#7c8287;fill-opacity:1;stroke:none;stroke-width:0.399999;stroke-linecap:round;paint-order:stroke fill markers"
             id="path13"
             sodipodi:type="arc"
             sodipodi:cx="77.532249"
             sodipodi:cy="166.59677"
             sodipodi:rx="7.8064513"
             sodipodi:ry="7.8064513"
             sodipodi:start="0"
             sodipodi:end="6.2778341"
             sodipodi:open="true"
             sodipodi:arc-type="arc"
             d="m 85.338701,166.59677 a 7.8064513,7.8064513 0 0 1 -7.796008,7.80645 7.8064513,7.8064513 0 0 1 -7.816867,-7.78556 7.8064513,7.8064513 0 0 1 7.775093,-7.82728 7.8064513,7.8064513 0 0 1 7.83767,7.76462" />
          <path
             style="fill:#7c8287;fill-opacity:1;stroke:none;stroke-width:0.451388;stroke-linecap:round;paint-order:stroke fill markers"
             id="path14"
             sodipodi:type="arc"
             sodipodi:cx="91.7258"
             sodipodi:cy="162.87096"
             sodipodi:rx="11.532258"
             sodipodi:ry="11.532258"
             sodipodi:start="0"
             sodipodi:end="6.2778341"
             sodipodi:open="true"
             sodipodi:arc-type="arc"
             d="M 103.25806,162.87096 A 11.532258,11.532258 0 0 1 91.741227,174.4032 11.532258,11.532258 0 0 1 80.193583,162.90181 11.532258,11.532258 0 0 1 91.679516,151.33879 11.532258,11.532258 0 0 1 103.25789,162.80925" />
          <path
             style="fill:#7c8287;fill-opacity:1;stroke:none;stroke-width:0.326388;stroke-linecap:round;paint-order:stroke fill markers"
             id="path15"
             sodipodi:type="arc"
             sodipodi:cx="107.16128"
             sodipodi:cy="166.41934"
             sodipodi:rx="8.3387098"
             sodipodi:ry="8.3387098"
             sodipodi:start="0"
             sodipodi:end="6.2778341"
             sodipodi:open="true"
             sodipodi:arc-type="arc"
             d="m 115.49999,166.41934 a 8.3387098,8.3387098 0 0 1 -8.32756,8.3387 8.3387098,8.3387098 0 0 1 -8.349832,-8.31639 8.3387098,8.3387098 0 0 1 8.305212,-8.36095 8.3387098,8.3387098 0 0 1 8.37206,8.29402" />
          <path
             style="fill:#7c8287;fill-opacity:1;stroke:none;stroke-width:0.520786;stroke-linecap:round;paint-order:stroke fill markers"
             id="path16"
             sodipodi:type="arc"
             sodipodi:cx="124.37096"
             sodipodi:cy="161.09677"
             sodipodi:rx="13.483871"
             sodipodi:ry="13.129032"
             sodipodi:start="0"
             sodipodi:end="6.2778341"
             sodipodi:open="true"
             sodipodi:arc-type="arc"
             d="m 137.85483,161.09677 a 13.483871,13.129032 0 0 1 -13.46583,13.12902 13.483871,13.129032 0 0 1 -13.50187,-13.09389 13.483871,13.129032 0 0 1 13.42971,-13.16406 13.483871,13.129032 0 0 1 13.53779,13.05868" />
        </g>
      </g>
      <path
         style="fill:#b8bec3;fill-opacity:1;stroke:none;stroke-width:0.499999;stroke-linecap:round;paint-order:stroke fill markers"
         id="path2"
         sodipodi:type="arc"
         sodipodi:cx="108.04839"
         sodipodi:cy="131.82259"
         sodipodi:rx="17.032257"
         sodipodi:ry="17.032257"
         sodipodi:start="0"
         sodipodi:end="6.2778341"
         sodipodi:open="true"
         sodipodi:arc-type="arc"
         d="m 125.08065,131.82259 a 17.032257,17.032257 0 0 1 -17.00947,17.03224 17.032257,17.032257 0 0 1 -17.054983,-16.98667 17.032257,17.032257 0 0 1 16.963843,-17.07769 17.032257,17.032257 0 0 1 17.10037,16.94097" />
      <g
         id="g11"
         transform="translate(0.53225806,-17.741935)"
         style="fill:#b8bec3;fill-opacity:1">
        <path
           style="fill:#b8bec3;fill-opacity:1;stroke:none;stroke-width:0.399999;stroke-linecap:round;paint-order:stroke fill markers"
           id="path3"
           sodipodi:type="arc"
           sodipodi:cx="77.532249"
           sodipodi:cy="166.59677"
           sodipodi:rx="7.8064513"
           sodipodi:ry="7.8064513"
           sodipodi:start="0"
           sodipodi:end="6.2778341"
           sodipodi:open="true"
           sodipodi:arc-type="arc"
           d="m 85.338701,166.59677 a 7.8064513,7.8064513 0 0 1 -7.796008,7.80645 7.8064513,7.8064513 0 0 1 -7.816867,-7.78556 7.8064513,7.8064513 0 0 1 7.775093,-7.82728 7.8064513,7.8064513 0 0 1 7.83767,7.76462" />
        <path
           style="fill:#b8bec3;fill-opacity:1;stroke:none;stroke-width:0.451388;stroke-linecap:round;paint-order:stroke fill markers"
           id="path4"
           sodipodi:type="arc"
           sodipodi:cx="91.7258"
           sodipodi:cy="162.87096"
           sodipodi:rx="11.532258"
           sodipodi:ry="11.532258"
           sodipodi:start="0"
           sodipodi:end="6.2778341"
           sodipodi:open="true"
           sodipodi:arc-type="arc"
           d="M 103.25806,162.87096 A 11.532258,11.532258 0 0 1 91.741227,174.4032 11.532258,11.532258 0 0 1 80.193583,162.90181 11.532258,11.532258 0 0 1 91.679516,151.33879 11.532258,11.532258 0 0 1 103.25789,162.80925" />
        <path
           style="fill:#b8bec3;fill-opacity:1;stroke:none;stroke-width:0.326388;stroke-linecap:round;paint-order:stroke fill markers"
           id="path5"
           sodipodi:type="arc"
           sodipodi:cx="107.16128"
           sodipodi:cy="166.41934"
           sodipodi:rx="8.3387098"
           sodipodi:ry="8.3387098"
           sodipodi:start="0"
           sodipodi:end="6.2778341"
           sodipodi:open="true"
           sodipodi:arc-type="arc"
           d="m 115.49999,166.41934 a 8.3387098,8.3387098 0 0 1 -8.32756,8.3387 8.3387098,8.3387098 0 0 1 -8.349832,-8.31639 8.3387098,8.3387098 0 0 1 8.305212,-8.36095 8.3387098,8.3387098 0 0 1 8.37206,8.29402" />
        <path
           style="fill:#b8bec3;fill-opacity:1;stroke:none;stroke-width:0.520786;stroke-linecap:round;paint-order:stroke fill markers"
           id="path11"
           sodipodi:type="arc"
           sodipodi:cx="124.37096"
           sodipodi:cy="161.09677"
           sodipodi:rx="13.483871"
           sodipodi:ry="13.129032"
           sodipodi:start="0"
           sodipodi:end="6.2778341"
           sodipodi:open="true"
           sodipodi:arc-type="arc"
           d="m 137.85483,161.09677 a 13.483871,13.129032 0 0 1 -13.46583,13.12902 13.483871,13.129032 0 0 1 -13.50187,-13.09389 13.483871,13.129032 0 0 1 13.42971,-13.16406 13.483871,13.129032 0 0 1 13.53779,13.05868" />
      </g>
    </g>
  </g>
</svg>
