<?xml version="1.0" encoding="UTF-8" standalone="no"?>
<!-- Created with Inkscape (http://www.inkscape.org/) -->

<svg
   width="158.79033mm"
   height="158.79033mm"
   viewBox="0 0 158.79033 158.79033"
   version="1.1"
   id="svg1"
   inkscape:version="1.3.2 (091e20e, 2023-11-25, custom)"
   sodipodi:docname="13n.svg"
   xmlns:inkscape="http://www.inkscape.org/namespaces/inkscape"
   xmlns:sodipodi="http://sodipodi.sourceforge.net/DTD/sodipodi-0.dtd"
   xmlns="http://www.w3.org/2000/svg"
   xmlns:svg="http://www.w3.org/2000/svg">
  <sodipodi:namedview
     id="namedview1"
     pagecolor="#ffffff"
     bordercolor="#666666"
     borderopacity="1.0"
     inkscape:showpageshadow="2"
     inkscape:pageopacity="0.0"
     inkscape:pagecheckerboard="0"
     inkscape:deskcolor="#d1d1d1"
     inkscape:document-units="mm"
     inkscape:zoom="0.52724989"
     inkscape:cx="-330.96261"
     inkscape:cy="454.24382"
     inkscape:window-width="1920"
     inkscape:window-height="1051"
     inkscape:window-x="-9"
     inkscape:window-y="-9"
     inkscape:window-maximized="1"
     inkscape:current-layer="g4" />
  <defs
     id="defs1" />
  <g
     inkscape:label="Layer 1"
     inkscape:groupmode="layer"
     id="layer1"
     transform="translate(-25.93997,-50.387096)">
    <path
       id="path1"
       style="fill:#99c4ce;fill-opacity:1;stroke-width:0.499999;stroke-linecap:round;paint-order:stroke fill markers"
       d="m 105.25947,110.79099 a 18.806452,18.806452 0 0 0 -18.730653,18.85673 18.806452,18.806452 0 0 0 18.831423,18.75597 18.806452,18.806452 0 0 0 18.78128,-18.80609 l -5.2e-4,-0.10077 a 18.806452,18.806452 0 0 0 -18.88153,-18.70584 z m 0.0284,7.09673 a 11.709678,11.709678 0 0 1 11.75639,11.64683 l 5.1e-4,0.0631 A 11.709678,11.709678 0 0 1 105.35042,141.30696 11.709678,11.709678 0 0 1 93.625542,129.6286 11.709678,11.709678 0 0 1 105.28789,117.88772 Z" />
    <g
       id="g4">
      <g
         id="g5"
         transform="translate(0.35483871)"
         style="fill:#99c4ce;fill-opacity:1">
        <rect
           style="fill:#99c4ce;fill-opacity:1;stroke-width:0.528593;stroke-linecap:round;paint-order:stroke fill markers"
           id="rect2"
           width="6.7419353"
           height="67.064514"
           x="101.48387"
           y="50.387096"
           ry="3.3709676"
           rx="3.3709676" />
        <rect
           style="fill:#99c4ce;fill-opacity:1;stroke-width:0.368339;stroke-linecap:round;paint-order:stroke fill markers"
           id="rect3"
           width="6.7419353"
           height="32.564545"
           x="52.282867"
           y="89.784935"
           ry="3.3709676"
           rx="3.3709676"
           transform="rotate(-27.913603)" />
        <rect
           style="fill:#99c4ce;fill-opacity:1;stroke-width:0.368339;stroke-linecap:round;paint-order:stroke fill markers"
           id="rect4"
           width="6.7419353"
           height="32.564545"
           x="-133.24976"
           y="-8.5059366"
           ry="3.3709676"
           rx="3.3709676"
           transform="matrix(-0.88365451,-0.46813962,-0.46813962,0.88365451,0,0)" />
      </g>
      <g
         id="g7"
         transform="matrix(1,0,0,-1,0.35483871,259.56452)"
         style="fill:#99c4ce;fill-opacity:1">
        <rect
           style="fill:#99c4ce;fill-opacity:1;stroke-width:0.528593;stroke-linecap:round;paint-order:stroke fill markers"
           id="rect5"
           width="6.7419353"
           height="67.064514"
           x="101.48387"
           y="50.387096"
           ry="3.3709676"
           rx="3.3709676" />
        <rect
           style="fill:#99c4ce;fill-opacity:1;stroke-width:0.368339;stroke-linecap:round;paint-order:stroke fill markers"
           id="rect6"
           width="6.7419353"
           height="32.564545"
           x="52.282867"
           y="89.784935"
           ry="3.3709676"
           rx="3.3709676"
           transform="rotate(-27.913603)" />
        <rect
           style="fill:#99c4ce;fill-opacity:1;stroke-width:0.368339;stroke-linecap:round;paint-order:stroke fill markers"
           id="rect7"
           width="6.7419353"
           height="32.564545"
           x="-133.24976"
           y="-8.5059366"
           ry="3.3709676"
           rx="3.3709676"
           transform="matrix(-0.88365451,-0.46813962,-0.46813962,0.88365451,0,0)" />
      </g>
      <g
         id="g10"
         transform="rotate(90,105.15771,129.95968)"
         style="fill:#99c4ce;fill-opacity:1">
        <rect
           style="fill:#99c4ce;fill-opacity:1;stroke-width:0.528593;stroke-linecap:round;paint-order:stroke fill markers"
           id="rect8"
           width="6.7419353"
           height="67.064514"
           x="101.48387"
           y="50.387096"
           ry="3.3709676"
           rx="3.3709676" />
        <rect
           style="fill:#99c4ce;fill-opacity:1;stroke-width:0.368339;stroke-linecap:round;paint-order:stroke fill markers"
           id="rect9"
           width="6.7419353"
           height="32.564545"
           x="52.282867"
           y="89.784935"
           ry="3.3709676"
           rx="3.3709676"
           transform="rotate(-27.913603)" />
        <rect
           style="fill:#99c4ce;fill-opacity:1;stroke-width:0.368339;stroke-linecap:round;paint-order:stroke fill markers"
           id="rect10"
           width="6.7419353"
           height="32.564545"
           x="-133.24976"
           y="-8.5059366"
           ry="3.3709676"
           rx="3.3709676"
           transform="matrix(-0.88365451,-0.46813962,-0.46813962,0.88365451,0,0)" />
      </g>
      <g
         id="g13"
         transform="matrix(0,1,1,0,-24.447126,24.801965)"
         style="fill:#99c4ce;fill-opacity:1">
        <rect
           style="fill:#99c4ce;fill-opacity:1;stroke-width:0.528593;stroke-linecap:round;paint-order:stroke fill markers"
           id="rect11"
           width="6.7419353"
           height="67.064514"
           x="101.48387"
           y="50.387096"
           ry="3.3709676"
           rx="3.3709676" />
        <rect
           style="fill:#99c4ce;fill-opacity:1;stroke-width:0.368339;stroke-linecap:round;paint-order:stroke fill markers"
           id="rect12"
           width="6.7419353"
           height="32.564545"
           x="52.282867"
           y="89.784935"
           ry="3.3709676"
           rx="3.3709676"
           transform="rotate(-27.913603)" />
        <rect
           style="fill:#99c4ce;fill-opacity:1;stroke-width:0.368339;stroke-linecap:round;paint-order:stroke fill markers"
           id="rect13"
           width="6.7419353"
           height="32.564545"
           x="-133.24976"
           y="-8.5059366"
           ry="3.3709676"
           rx="3.3709676"
           transform="matrix(-0.88365451,-0.46813962,-0.46813962,0.88365451,0,0)" />
      </g>
      <g
         id="g16"
         transform="rotate(46.153713,105.15771,130.19868)"
         style="fill:#99c4ce;fill-opacity:1">
        <rect
           style="fill:#99c4ce;fill-opacity:1;stroke-width:0.528593;stroke-linecap:round;paint-order:stroke fill markers"
           id="rect14"
           width="6.7419353"
           height="67.064514"
           x="101.48387"
           y="50.387096"
           ry="3.3709676"
           rx="3.3709676" />
        <rect
           style="fill:#99c4ce;fill-opacity:1;stroke-width:0.368339;stroke-linecap:round;paint-order:stroke fill markers"
           id="rect15"
           width="6.7419353"
           height="32.564545"
           x="52.282867"
           y="89.784935"
           ry="3.3709676"
           rx="3.3709676"
           transform="rotate(-27.913603)" />
        <rect
           style="fill:#99c4ce;fill-opacity:1;stroke-width:0.368339;stroke-linecap:round;paint-order:stroke fill markers"
           id="rect16"
           width="6.7419353"
           height="32.564545"
           x="-133.24976"
           y="-8.5059366"
           ry="3.3709676"
           rx="3.3709676"
           transform="matrix(-0.88365451,-0.46813962,-0.46813962,0.88365451,0,0)" />
      </g>
      <g
         id="g19"
         transform="matrix(0.69272603,0.72120083,0.72120083,-0.69272603,-60.986526,143.97393)"
         style="fill:#99c4ce;fill-opacity:1">
        <rect
           style="fill:#99c4ce;fill-opacity:1;stroke-width:0.528593;stroke-linecap:round;paint-order:stroke fill markers"
           id="rect17"
           width="6.7419353"
           height="67.064514"
           x="101.48387"
           y="50.387096"
           ry="3.3709676"
           rx="3.3709676" />
        <rect
           style="fill:#99c4ce;fill-opacity:1;stroke-width:0.368339;stroke-linecap:round;paint-order:stroke fill markers"
           id="rect18"
           width="6.7419353"
           height="32.564545"
           x="52.282867"
           y="89.784935"
           ry="3.3709676"
           rx="3.3709676"
           transform="rotate(-27.913603)" />
        <rect
           style="fill:#99c4ce;fill-opacity:1;stroke-width:0.368339;stroke-linecap:round;paint-order:stroke fill markers"
           id="rect19"
           width="6.7419353"
           height="32.564545"
           x="-133.24976"
           y="-8.5059366"
           ry="3.3709676"
           rx="3.3709676"
           transform="matrix(-0.88365451,-0.46813962,-0.46813962,0.88365451,0,0)" />
      </g>
      <g
         id="g22"
         transform="rotate(136.15371,105.15771,129.85366)"
         style="fill:#99c4ce;fill-opacity:1">
        <rect
           style="fill:#99c4ce;fill-opacity:1;stroke-width:0.528593;stroke-linecap:round;paint-order:stroke fill markers"
           id="rect20"
           width="6.7419353"
           height="67.064514"
           x="101.48387"
           y="50.387096"
           ry="3.3709676"
           rx="3.3709676" />
        <rect
           style="fill:#99c4ce;fill-opacity:1;stroke-width:0.368339;stroke-linecap:round;paint-order:stroke fill markers"
           id="rect21"
           width="6.7419353"
           height="32.564545"
           x="52.282867"
           y="89.784935"
           ry="3.3709676"
           rx="3.3709676"
           transform="rotate(-27.913603)" />
        <rect
           style="fill:#99c4ce;fill-opacity:1;stroke-width:0.368339;stroke-linecap:round;paint-order:stroke fill markers"
           id="rect22"
           width="6.7419353"
           height="32.564545"
           x="-133.24976"
           y="-8.5059366"
           ry="3.3709676"
           rx="3.3709676"
           transform="matrix(-0.88365451,-0.46813962,-0.46813962,0.88365451,0,0)" />
      </g>
      <g
         id="g25"
         transform="matrix(-0.72120083,0.69272603,0.69272603,0.72120083,91.143462,-36.539398)"
         style="fill:#99c4ce;fill-opacity:1">
        <rect
           style="fill:#99c4ce;fill-opacity:1;stroke-width:0.528593;stroke-linecap:round;paint-order:stroke fill markers"
           id="rect23"
           width="6.7419353"
           height="67.064514"
           x="101.48387"
           y="50.387096"
           ry="3.3709676"
           rx="3.3709676" />
        <rect
           style="fill:#99c4ce;fill-opacity:1;stroke-width:0.368339;stroke-linecap:round;paint-order:stroke fill markers"
           id="rect24"
           width="6.7419353"
           height="32.564545"
           x="52.282867"
           y="89.784935"
           ry="3.3709676"
           rx="3.3709676"
           transform="rotate(-27.913603)" />
        <rect
           style="fill:#99c4ce;fill-opacity:1;stroke-width:0.368339;stroke-linecap:round;paint-order:stroke fill markers"
           id="rect25"
           width="6.7419353"
           height="32.564545"
           x="-133.24976"
           y="-8.5059366"
           ry="3.3709676"
           rx="3.3709676"
           transform="matrix(-0.88365451,-0.46813962,-0.46813962,0.88365451,0,0)" />
      </g>
    </g>
  </g>
</svg>
