<?xml version="1.0" encoding="UTF-8" standalone="no"?>
<!-- Created with Inkscape (http://www.inkscape.org/) -->

<svg
   width="45.408134mm"
   height="38.143875mm"
   viewBox="0 0 45.408134 38.143875"
   version="1.1"
   id="svg1"
   xml:space="preserve"
   inkscape:version="1.3.2 (091e20e, 2023-11-25, custom)"
   sodipodi:docname="waveLeftsvg.svg"
   xmlns:inkscape="http://www.inkscape.org/namespaces/inkscape"
   xmlns:sodipodi="http://sodipodi.sourceforge.net/DTD/sodipodi-0.dtd"
   xmlns="http://www.w3.org/2000/svg"
   xmlns:svg="http://www.w3.org/2000/svg"><sodipodi:namedview
     id="namedview1"
     pagecolor="#ffffff"
     bordercolor="#666666"
     borderopacity="1.0"
     inkscape:showpageshadow="2"
     inkscape:pageopacity="0.0"
     inkscape:pagecheckerboard="0"
     inkscape:deskcolor="#d1d1d1"
     inkscape:document-units="mm"
     inkscape:zoom="0.52724989"
     inkscape:cx="-198.19824"
     inkscape:cy="99.573279"
     inkscape:window-width="1920"
     inkscape:window-height="1051"
     inkscape:window-x="-9"
     inkscape:window-y="-9"
     inkscape:window-maximized="1"
     inkscape:current-layer="layer1" /><defs
     id="defs1"><inkscape:path-effect
       effect="bspline"
       id="path-effect5"
       is_visible="true"
       lpeversion="1.3"
       weight="33.333333"
       steps="2"
       helper_size="0"
       apply_no_weight="true"
       apply_with_weight="true"
       only_selected="false"
       uniform="false" /><inkscape:path-effect
       effect="bspline"
       id="path-effect3"
       is_visible="true"
       lpeversion="1.3"
       weight="33.333333"
       steps="2"
       helper_size="0"
       apply_no_weight="true"
       apply_with_weight="true"
       only_selected="false"
       uniform="false" /><inkscape:path-effect
       effect="bspline"
       id="path-effect2"
       is_visible="true"
       lpeversion="1.3"
       weight="33.333333"
       steps="2"
       helper_size="0"
       apply_no_weight="true"
       apply_with_weight="true"
       only_selected="false"
       uniform="false" /><inkscape:path-effect
       effect="bspline"
       id="path-effect1"
       is_visible="true"
       lpeversion="1.3"
       weight="33.333333"
       steps="2"
       helper_size="0"
       apply_no_weight="true"
       apply_with_weight="true"
       only_selected="false"
       uniform="false" /><inkscape:path-effect
       effect="bspline"
       id="path-effect3-1"
       is_visible="true"
       lpeversion="1.3"
       weight="33.333333"
       steps="2"
       helper_size="0"
       apply_no_weight="true"
       apply_with_weight="true"
       only_selected="false"
       uniform="false" /></defs><g
     inkscape:label="Layer 1"
     inkscape:groupmode="layer"
     id="layer1"
     transform="translate(-102.20902,-92.510419)"
     ><g
       id="g21"
       transform="matrix(1.0850252,0,0,1.0850252,-12.661092,-8.2453844)"><path
         style="fill:none;stroke:#8661c1;stroke-width:0.5;stroke-linecap:butt;stroke-linejoin:miter;stroke-dasharray:none;stroke-opacity:1"
         d="m 103.26179,92.755706 c 5.24315,1.032805 13.6435,2.68752 16.62509,7.676514 2.98159,4.98899 2.12313,13.62323 6.29412,17.04822 4.17099,3.42499 13.37109,1.64054 17.64597,2.9635 4.27487,1.32296 3.62429,5.75372 3.29904,7.92695 -0.32524,2.17323 -0.32524,2.08956 -0.32524,2.00592"
         id="path2"
         sodipodi:nodetypes="cccccc" /><path
         style="fill:none;stroke:#8661c1;stroke-width:0.5;stroke-linecap:butt;stroke-linejoin:miter;stroke-dasharray:none;stroke-opacity:1"
         d="m 103.26179,92.755706 c 5.24315,1.032805 13.6435,2.68752 16.62509,7.676514 2.98159,4.98899 2.12313,13.62323 6.29412,17.04822 4.17099,3.42499 13.37118,1.64052 17.68762,2.6801 4.31645,1.03958 3.74909,4.90349 3.42384,7.1186 -0.32526,2.21511 -0.40847,2.78185 -0.45008,3.02341 -0.0416,0.24157 -0.0416,0.1579 -0.0416,0.0743"
         id="path2-8"
         sodipodi:nodetypes="ccccccc"
         transform="matrix(0.8201468,0,0,0.8201468,18.638958,22.707657)" /><path
         style="fill:none;stroke:#8661c1;stroke-width:0.5;stroke-linecap:butt;stroke-linejoin:miter;stroke-dasharray:none;stroke-opacity:1"
         d="m 103.26179,92.755706 c 5.24315,1.032805 13.6435,2.68752 16.62509,7.676514 2.98159,4.98899 2.12313,13.62323 6.29412,17.04822 4.17099,3.42499 13.37118,1.64052 17.68762,2.6801 4.31645,1.03958 3.74909,4.90349 3.42384,7.1186 -0.32526,2.21511 -0.40847,2.78185 -0.45008,3.02341 -0.0416,0.24157 -0.0416,0.1579 -0.0416,0.0743"
         id="path3"
         sodipodi:nodetypes="ccccccc"
         transform="matrix(0.67677832,0,0,0.67677832,32.372001,41.281299)" /></g></g></svg>
