<?xml version="1.0" encoding="UTF-8" standalone="no"?>
<!-- Created with Inkscape (http://www.inkscape.org/) -->

<svg
   width="50.104408mm"
   height="41.321938mm"
   viewBox="0 0 50.104408 41.321938"
   version="1.1"
   id="svg1"
   xml:space="preserve"
   inkscape:version="1.3.2 (091e20e, 2023-11-25, custom)"
   sodipodi:docname="waveRight.svg"
   xmlns:inkscape="http://www.inkscape.org/namespaces/inkscape"
   xmlns:sodipodi="http://sodipodi.sourceforge.net/DTD/sodipodi-0.dtd"
   xmlns="http://www.w3.org/2000/svg"
   xmlns:svg="http://www.w3.org/2000/svg"><sodipodi:namedview
     id="namedview1"
     pagecolor="#ffffff"
     bordercolor="#666666"
     borderopacity="1.0"
     inkscape:showpageshadow="2"
     inkscape:pageopacity="0.0"
     inkscape:pagecheckerboard="0"
     inkscape:deskcolor="#d1d1d1"
     inkscape:document-units="mm"
     inkscape:zoom="2.9825758"
     inkscape:cx="56.494793"
     inkscape:cy="78.288037"
     inkscape:window-width="1920"
     inkscape:window-height="1051"
     inkscape:window-x="-9"
     inkscape:window-y="-9"
     inkscape:window-maximized="1"
     inkscape:current-layer="layer1" /><defs
     id="defs1"><inkscape:path-effect
       effect="bspline"
       id="path-effect7"
       is_visible="true"
       lpeversion="1.3"
       weight="33.333333"
       steps="2"
       helper_size="0"
       apply_no_weight="true"
       apply_with_weight="true"
       only_selected="false"
       uniform="false" /><inkscape:path-effect
       effect="bspline"
       id="path-effect5"
       is_visible="true"
       lpeversion="1.3"
       weight="33.333333"
       steps="2"
       helper_size="0"
       apply_no_weight="true"
       apply_with_weight="true"
       only_selected="false"
       uniform="false" /><inkscape:path-effect
       effect="bspline"
       id="path-effect3"
       is_visible="true"
       lpeversion="1.3"
       weight="33.333333"
       steps="2"
       helper_size="0"
       apply_no_weight="true"
       apply_with_weight="true"
       only_selected="false"
       uniform="false" /><inkscape:path-effect
       effect="bspline"
       id="path-effect1"
       is_visible="true"
       lpeversion="1.3"
       weight="33.333333"
       steps="2"
       helper_size="0"
       apply_no_weight="true"
       apply_with_weight="true"
       only_selected="false"
       uniform="false" /></defs><g
     inkscape:label="Layer 1"
     inkscape:groupmode="layer"
     id="layer1"
     transform="translate(-87.1329,-106.54997)"><g
       id="g7"
       transform="matrix(1.0686974,0,0,1.0686974,-5.4890828,-7.1422864)"
       style="stroke-width:0.5;stroke-dasharray:none"><path
         style="fill:none;fill-opacity:1;stroke:#8661c1;stroke-width:0.5;stroke-linecap:butt;stroke-linejoin:miter;stroke-dasharray:none;stroke-opacity:1"
         d="m 88.620967,146.99193 c -1.182794,-4.73117 -2.365568,-9.46226 0.768904,-11.51741 3.134471,-2.05515 10.585787,-1.43421 14.060319,-4.42083 3.47453,-2.98662 2.97186,-9.58046 5.05657,-11.2364 2.08472,-1.65594 6.75658,1.62619 9.29964,1.55226 2.54307,-0.0739 2.95703,-3.5039 3.57801,-6.40181 0.62097,-2.8979 1.44889,-5.26338 4.11026,-6.47578 2.66136,-1.21239 7.15589,-1.27153 9.37362,-1.3898 2.21773,-0.11828 2.15859,-0.29571 2.09945,-0.47313 m 0,0 c 0,0 0,0 0,0 0,0 0,0 0,0"
         id="path1"
         sodipodi:nodetypes="cccccccccccc" /><path
         style="fill:none;fill-opacity:1;stroke:#8661c1;stroke-width:0.5;stroke-linecap:butt;stroke-linejoin:miter;stroke-dasharray:none;stroke-opacity:1"
         d="m 88.620967,146.99193 c -1.182794,-4.73117 -2.365568,-9.46226 0.768904,-11.51741 3.134471,-2.05515 10.585787,-1.43421 14.060319,-4.42083 3.47453,-2.98662 2.97186,-9.58046 5.05657,-11.2364 2.08472,-1.65594 6.75658,1.62619 9.29964,1.55226 2.54307,-0.0739 2.95703,-3.5039 3.57801,-6.40181 0.62097,-2.8979 1.44889,-5.26338 4.11026,-6.47578 2.66136,-1.21239 7.15589,-1.27153 9.37362,-1.3898 2.21773,-0.11828 2.15859,-0.29571 2.09945,-0.47313 m 0,0 c 0,0 0,0 0,0 0,0 0,0 0,0"
         id="path2"
         sodipodi:nodetypes="cccccccccccc"
         transform="matrix(0.86480765,0,0,0.86480765,18.182676,20.691533)" /><path
         style="fill:none;fill-opacity:1;stroke:#8661c1;stroke-width:0.5;stroke-linecap:butt;stroke-linejoin:miter;stroke-dasharray:none;stroke-opacity:1"
         d="m 88.620967,146.99193 c -1.182794,-4.73117 -2.365568,-9.46226 0.768904,-11.51741 3.134471,-2.05515 10.585787,-1.43421 14.060319,-4.42083 3.47453,-2.98662 2.97186,-9.58046 5.05657,-11.2364 2.08472,-1.65594 6.75658,1.62619 9.29964,1.55226 2.54307,-0.0739 2.95703,-3.5039 3.57801,-6.40181 0.62097,-2.8979 1.44889,-5.26338 4.11026,-6.47578 2.66136,-1.21239 7.15589,-1.27153 9.37362,-1.3898 2.21773,-0.11828 2.15859,-0.29571 2.09945,-0.47313 m 0,0 c 0,0 0,0 0,0 0,0 0,0 0,0"
         id="path3"
         sodipodi:nodetypes="cccccccccccc"
         transform="matrix(0.75950629,0,0,0.75950629,32.036226,36.084658)" /><path
         style="fill:none;fill-opacity:1;stroke:#8661c1;stroke-width:0.5;stroke-linecap:butt;stroke-linejoin:miter;stroke-dasharray:none;stroke-opacity:1"
         d="m 88.620967,146.99193 c -1.182794,-4.73117 -2.365568,-9.46226 0.768904,-11.51741 3.134471,-2.05515 10.585787,-1.43421 14.060319,-4.42083 3.47453,-2.98662 2.97186,-9.58046 5.05657,-11.2364 2.08472,-1.65594 6.75658,1.62619 9.29964,1.55226 2.54307,-0.0739 2.95703,-3.5039 3.57801,-6.40181 0.62097,-2.8979 1.44889,-5.26338 4.11026,-6.47578 2.66136,-1.21239 7.15589,-1.27153 9.37362,-1.3898 2.21773,-0.11828 2.15859,-0.29571 2.09945,-0.47313 m 0,0 c 0,0 0,0 0,0 0,0 0,0 0,0"
         id="path5"
         sodipodi:nodetypes="cccccccccccc"
         transform="matrix(0.6730615,0,0,0.6730615,43.064676,48.376987)" /></g></g></svg>
